%TF.GenerationSoftware,KiCad,Pcbnew,8.0.0*%
%TF.CreationDate,2025-01-29T17:19:00-08:00*%
%TF.ProjectId,IEEE-Macropad,49454545-2d4d-4616-9372-6f7061642e6b,rev?*%
%TF.SameCoordinates,Original*%
%TF.FileFunction,Copper,L2,Bot*%
%TF.FilePolarity,Positive*%
%FSLAX46Y46*%
G04 Gerber Fmt 4.6, Leading zero omitted, Abs format (unit mm)*
G04 Created by KiCad (PCBNEW 8.0.0) date 2025-01-29 17:19:00*
%MOMM*%
%LPD*%
G01*
G04 APERTURE LIST*
G04 Aperture macros list*
%AMRoundRect*
0 Rectangle with rounded corners*
0 $1 Rounding radius*
0 $2 $3 $4 $5 $6 $7 $8 $9 X,Y pos of 4 corners*
0 Add a 4 corners polygon primitive as box body*
4,1,4,$2,$3,$4,$5,$6,$7,$8,$9,$2,$3,0*
0 Add four circle primitives for the rounded corners*
1,1,$1+$1,$2,$3*
1,1,$1+$1,$4,$5*
1,1,$1+$1,$6,$7*
1,1,$1+$1,$8,$9*
0 Add four rect primitives between the rounded corners*
20,1,$1+$1,$2,$3,$4,$5,0*
20,1,$1+$1,$4,$5,$6,$7,0*
20,1,$1+$1,$6,$7,$8,$9,0*
20,1,$1+$1,$8,$9,$2,$3,0*%
G04 Aperture macros list end*
%TA.AperFunction,ComponentPad*%
%ADD10C,2.250000*%
%TD*%
%TA.AperFunction,SMDPad,CuDef*%
%ADD11RoundRect,0.225000X0.375000X-0.225000X0.375000X0.225000X-0.375000X0.225000X-0.375000X-0.225000X0*%
%TD*%
%TA.AperFunction,SMDPad,CuDef*%
%ADD12R,0.500000X2.250000*%
%TD*%
%TA.AperFunction,ComponentPad*%
%ADD13O,1.700000X2.700000*%
%TD*%
%TA.AperFunction,SMDPad,CuDef*%
%ADD14R,1.800000X1.100000*%
%TD*%
%TA.AperFunction,SMDPad,CuDef*%
%ADD15RoundRect,0.250000X-0.450000X0.262500X-0.450000X-0.262500X0.450000X-0.262500X0.450000X0.262500X0*%
%TD*%
%TA.AperFunction,SMDPad,CuDef*%
%ADD16RoundRect,0.250000X0.250000X0.475000X-0.250000X0.475000X-0.250000X-0.475000X0.250000X-0.475000X0*%
%TD*%
%TA.AperFunction,SMDPad,CuDef*%
%ADD17RoundRect,0.250000X-0.250000X-0.475000X0.250000X-0.475000X0.250000X0.475000X-0.250000X0.475000X0*%
%TD*%
%TA.AperFunction,SMDPad,CuDef*%
%ADD18RoundRect,0.250000X0.475000X-0.250000X0.475000X0.250000X-0.475000X0.250000X-0.475000X-0.250000X0*%
%TD*%
%TA.AperFunction,SMDPad,CuDef*%
%ADD19RoundRect,0.250000X-0.475000X0.250000X-0.475000X-0.250000X0.475000X-0.250000X0.475000X0.250000X0*%
%TD*%
%TA.AperFunction,SMDPad,CuDef*%
%ADD20R,1.500000X0.550000*%
%TD*%
%TA.AperFunction,SMDPad,CuDef*%
%ADD21R,0.550000X1.500000*%
%TD*%
%TA.AperFunction,SMDPad,CuDef*%
%ADD22R,1.400000X1.200000*%
%TD*%
%TA.AperFunction,SMDPad,CuDef*%
%ADD23RoundRect,0.250000X-0.625000X0.375000X-0.625000X-0.375000X0.625000X-0.375000X0.625000X0.375000X0*%
%TD*%
%TA.AperFunction,ViaPad*%
%ADD24C,0.600000*%
%TD*%
%TA.AperFunction,Conductor*%
%ADD25C,0.381000*%
%TD*%
%TA.AperFunction,Conductor*%
%ADD26C,0.254000*%
%TD*%
%TA.AperFunction,Conductor*%
%ADD27C,0.200000*%
%TD*%
G04 APERTURE END LIST*
D10*
%TO.P,MX6,1,COL*%
%TO.N,COL1*%
X172402500Y-50641250D03*
%TO.P,MX6,2,ROW*%
%TO.N,Net-(D6-A)*%
X178752500Y-48101250D03*
%TD*%
%TO.P,MX11,1,COL*%
%TO.N,COL2*%
X191452500Y-69691250D03*
%TO.P,MX11,2,ROW*%
%TO.N,Net-(D11-A)*%
X197802500Y-67151250D03*
%TD*%
%TO.P,MX16,1,COL*%
%TO.N,COL3*%
X210502500Y-88741250D03*
%TO.P,MX16,2,ROW*%
%TO.N,Net-(D16-A)*%
X216852500Y-86201250D03*
%TD*%
%TO.P,MX8,1,COL*%
%TO.N,COL3*%
X210502500Y-50641250D03*
%TO.P,MX8,2,ROW*%
%TO.N,Net-(D8-A)*%
X216852500Y-48101250D03*
%TD*%
%TO.P,MX4,1,COL*%
%TO.N,COL3*%
X210502500Y-31591250D03*
%TO.P,MX4,2,ROW*%
%TO.N,Net-(D4-A)*%
X216852500Y-29051250D03*
%TD*%
%TO.P,MX3,1,COL*%
%TO.N,COL2*%
X191452500Y-31591250D03*
%TO.P,MX3,2,ROW*%
%TO.N,Net-(D3-A)*%
X197802500Y-29051250D03*
%TD*%
%TO.P,MX5,1,COL*%
%TO.N,COL0*%
X153352500Y-50641250D03*
%TO.P,MX5,2,ROW*%
%TO.N,Net-(D5-A)*%
X159702500Y-48101250D03*
%TD*%
%TO.P,MX1,1,COL*%
%TO.N,COL0*%
X153352500Y-31591250D03*
%TO.P,MX1,2,ROW*%
%TO.N,Net-(D1-A)*%
X159702500Y-29051250D03*
%TD*%
%TO.P,MX12,1,COL*%
%TO.N,COL3*%
X210502500Y-69691250D03*
%TO.P,MX12,2,ROW*%
%TO.N,Net-(D12-A)*%
X216852500Y-67151250D03*
%TD*%
%TO.P,MX15,1,COL*%
%TO.N,COL2*%
X191452500Y-88741250D03*
%TO.P,MX15,2,ROW*%
%TO.N,Net-(D15-A)*%
X197802500Y-86201250D03*
%TD*%
%TO.P,MX2,1,COL*%
%TO.N,COL1*%
X172402500Y-31591250D03*
%TO.P,MX2,2,ROW*%
%TO.N,Net-(D2-A)*%
X178752500Y-29051250D03*
%TD*%
%TO.P,MX9,1,COL*%
%TO.N,COL0*%
X153352500Y-69691250D03*
%TO.P,MX9,2,ROW*%
%TO.N,Net-(D9-A)*%
X159702500Y-67151250D03*
%TD*%
%TO.P,MX7,1,COL*%
%TO.N,COL2*%
X191452500Y-50641250D03*
%TO.P,MX7,2,ROW*%
%TO.N,Net-(D7-A)*%
X197802500Y-48101250D03*
%TD*%
%TO.P,MX10,1,COL*%
%TO.N,COL1*%
X172402500Y-69691250D03*
%TO.P,MX10,2,ROW*%
%TO.N,Net-(D10-A)*%
X178752500Y-67151250D03*
%TD*%
%TO.P,MX14,1,COL*%
%TO.N,COL1*%
X172402500Y-88741250D03*
%TO.P,MX14,2,ROW*%
%TO.N,Net-(D14-A)*%
X178752500Y-86201250D03*
%TD*%
%TO.P,MX13,1,COL*%
%TO.N,COL0*%
X153352500Y-88741250D03*
%TO.P,MX13,2,ROW*%
%TO.N,Net-(D13-A)*%
X159702500Y-86201250D03*
%TD*%
D11*
%TO.P,D9,1,K*%
%TO.N,ROW2*%
X165100000Y-73818750D03*
%TO.P,D9,2,A*%
%TO.N,Net-(D9-A)*%
X165100000Y-70518750D03*
%TD*%
D12*
%TO.P,USB1,1,GND*%
%TO.N,GND*%
X139718750Y-30956250D03*
%TO.P,USB1,2,ID*%
%TO.N,unconnected-(USB1-ID-Pad2)*%
X138918750Y-30956250D03*
%TO.P,USB1,3,D+*%
%TO.N,D+*%
X138118750Y-30956250D03*
%TO.P,USB1,4,D-*%
%TO.N,D-*%
X137318750Y-30956250D03*
%TO.P,USB1,5,VBUS*%
%TO.N,VCC*%
X136518750Y-30956250D03*
D13*
%TO.P,USB1,6,SHIELD*%
%TO.N,unconnected-(USB1-SHIELD-Pad6)*%
X141768750Y-26456250D03*
X134468750Y-26456250D03*
X141768750Y-30956250D03*
X134468750Y-30956250D03*
%TD*%
D14*
%TO.P,SW1,1,1*%
%TO.N,GND*%
X134937500Y-98425000D03*
%TO.P,SW1,2,2*%
%TO.N,Net-(U1-~{RESET})*%
X141137500Y-94725000D03*
%TO.P,SW1,3*%
%TO.N,N/C*%
X134937500Y-94725000D03*
%TO.P,SW1,4*%
X141137500Y-98425000D03*
%TD*%
D11*
%TO.P,D10,1,K*%
%TO.N,ROW2*%
X184150000Y-73818750D03*
%TO.P,D10,2,A*%
%TO.N,Net-(D10-A)*%
X184150000Y-70518750D03*
%TD*%
%TO.P,D2,1,K*%
%TO.N,ROW0*%
X184150000Y-35718750D03*
%TO.P,D2,2,A*%
%TO.N,Net-(D2-A)*%
X184150000Y-32418750D03*
%TD*%
%TO.P,D13,1,K*%
%TO.N,ROW3*%
X165100000Y-92868750D03*
%TO.P,D13,2,A*%
%TO.N,Net-(D13-A)*%
X165100000Y-89568750D03*
%TD*%
%TO.P,D11,1,K*%
%TO.N,ROW2*%
X203200000Y-73943750D03*
%TO.P,D11,2,A*%
%TO.N,Net-(D11-A)*%
X203200000Y-70643750D03*
%TD*%
D15*
%TO.P,R3,1*%
%TO.N,D-*%
X136525000Y-34687500D03*
%TO.P,R3,2*%
%TO.N,Net-(U1-D-)*%
X136525000Y-36512500D03*
%TD*%
D16*
%TO.P,C6,1*%
%TO.N,+5V*%
X142237500Y-73025000D03*
%TO.P,C6,2*%
%TO.N,GND*%
X140337500Y-73025000D03*
%TD*%
D11*
%TO.P,D5,1,K*%
%TO.N,ROW1*%
X165100000Y-54768750D03*
%TO.P,D5,2,A*%
%TO.N,Net-(D5-A)*%
X165100000Y-51468750D03*
%TD*%
%TO.P,D4,1,K*%
%TO.N,ROW0*%
X222250000Y-35718750D03*
%TO.P,D4,2,A*%
%TO.N,Net-(D4-A)*%
X222250000Y-32418750D03*
%TD*%
D15*
%TO.P,R1,1*%
%TO.N,+5V*%
X130968750Y-53062500D03*
%TO.P,R1,2*%
%TO.N,Net-(U1-~{RESET})*%
X130968750Y-54887500D03*
%TD*%
D11*
%TO.P,D1,1,K*%
%TO.N,ROW0*%
X165100000Y-35718750D03*
%TO.P,D1,2,A*%
%TO.N,Net-(D1-A)*%
X165100000Y-32418750D03*
%TD*%
D17*
%TO.P,C7,1*%
%TO.N,+5V*%
X132556250Y-73025000D03*
%TO.P,C7,2*%
%TO.N,GND*%
X134456250Y-73025000D03*
%TD*%
D11*
%TO.P,D16,1,K*%
%TO.N,ROW3*%
X222250000Y-92868750D03*
%TO.P,D16,2,A*%
%TO.N,Net-(D16-A)*%
X222250000Y-89568750D03*
%TD*%
D18*
%TO.P,C5,1*%
%TO.N,+5V*%
X134143750Y-54768750D03*
%TO.P,C5,2*%
%TO.N,GND*%
X134143750Y-52868750D03*
%TD*%
D11*
%TO.P,D15,1,K*%
%TO.N,ROW3*%
X203200000Y-92868750D03*
%TO.P,D15,2,A*%
%TO.N,Net-(D15-A)*%
X203200000Y-89568750D03*
%TD*%
%TO.P,D14,1,K*%
%TO.N,ROW3*%
X184150000Y-92868750D03*
%TO.P,D14,2,A*%
%TO.N,Net-(D14-A)*%
X184150000Y-89568750D03*
%TD*%
D15*
%TO.P,R2,1*%
%TO.N,D+*%
X138906250Y-34687500D03*
%TO.P,R2,2*%
%TO.N,Net-(U1-D+)*%
X138906250Y-36512500D03*
%TD*%
D19*
%TO.P,C3,1*%
%TO.N,Net-(U1-UCAP)*%
X129381250Y-63343750D03*
%TO.P,C3,2*%
%TO.N,GND*%
X129381250Y-65243750D03*
%TD*%
D11*
%TO.P,D12,1,K*%
%TO.N,ROW2*%
X222250000Y-73943750D03*
%TO.P,D12,2,A*%
%TO.N,Net-(D12-A)*%
X222250000Y-70643750D03*
%TD*%
D18*
%TO.P,C2,1*%
%TO.N,GND*%
X132712500Y-46350000D03*
%TO.P,C2,2*%
%TO.N,Net-(U1-XTAL2)*%
X132712500Y-44450000D03*
%TD*%
D20*
%TO.P,U1,1,PE6*%
%TO.N,unconnected-(U1-PE6-Pad1)*%
X131637500Y-68150000D03*
%TO.P,U1,2,UVCC*%
%TO.N,+5V*%
X131637500Y-67350000D03*
%TO.P,U1,3,D-*%
%TO.N,Net-(U1-D-)*%
X131637500Y-66550000D03*
%TO.P,U1,4,D+*%
%TO.N,Net-(U1-D+)*%
X131637500Y-65750000D03*
%TO.P,U1,5,UGND*%
%TO.N,GND*%
X131637500Y-64950000D03*
%TO.P,U1,6,UCAP*%
%TO.N,Net-(U1-UCAP)*%
X131637500Y-64150000D03*
%TO.P,U1,7,VBUS*%
%TO.N,+5V*%
X131637500Y-63350000D03*
%TO.P,U1,8,PB0*%
%TO.N,unconnected-(U1-PB0-Pad8)*%
X131637500Y-62550000D03*
%TO.P,U1,9,PB1*%
%TO.N,unconnected-(U1-PB1-Pad9)*%
X131637500Y-61750000D03*
%TO.P,U1,10,PB2*%
%TO.N,unconnected-(U1-PB2-Pad10)*%
X131637500Y-60950000D03*
%TO.P,U1,11,PB3*%
%TO.N,unconnected-(U1-PB3-Pad11)*%
X131637500Y-60150000D03*
D21*
%TO.P,U1,12,PB7*%
%TO.N,unconnected-(U1-PB7-Pad12)*%
X133337500Y-58450000D03*
%TO.P,U1,13,~{RESET}*%
%TO.N,Net-(U1-~{RESET})*%
X134137500Y-58450000D03*
%TO.P,U1,14,VCC*%
%TO.N,+5V*%
X134937500Y-58450000D03*
%TO.P,U1,15,GND*%
%TO.N,GND*%
X135737500Y-58450000D03*
%TO.P,U1,16,XTAL2*%
%TO.N,Net-(U1-XTAL2)*%
X136537500Y-58450000D03*
%TO.P,U1,17,XTAL1*%
%TO.N,Net-(U1-XTAL1)*%
X137337500Y-58450000D03*
%TO.P,U1,18,PD0*%
%TO.N,unconnected-(U1-PD0-Pad18)*%
X138137500Y-58450000D03*
%TO.P,U1,19,PD1*%
%TO.N,unconnected-(U1-PD1-Pad19)*%
X138937500Y-58450000D03*
%TO.P,U1,20,PD2*%
%TO.N,unconnected-(U1-PD2-Pad20)*%
X139737500Y-58450000D03*
%TO.P,U1,21,PD3*%
%TO.N,unconnected-(U1-PD3-Pad21)*%
X140537500Y-58450000D03*
%TO.P,U1,22,PD5*%
%TO.N,unconnected-(U1-PD5-Pad22)*%
X141337500Y-58450000D03*
D20*
%TO.P,U1,23,GND*%
%TO.N,GND*%
X143037500Y-60150000D03*
%TO.P,U1,24,AVCC*%
%TO.N,+5V*%
X143037500Y-60950000D03*
%TO.P,U1,25,PD4*%
%TO.N,ROW0*%
X143037500Y-61750000D03*
%TO.P,U1,26,PD6*%
%TO.N,COL0*%
X143037500Y-62550000D03*
%TO.P,U1,27,PD7*%
%TO.N,ROW1*%
X143037500Y-63350000D03*
%TO.P,U1,28,PB4*%
%TO.N,COL1*%
X143037500Y-64150000D03*
%TO.P,U1,29,PB5*%
%TO.N,ROW2*%
X143037500Y-64950000D03*
%TO.P,U1,30,PB6*%
%TO.N,COL2*%
X143037500Y-65750000D03*
%TO.P,U1,31,PC6*%
%TO.N,ROW3*%
X143037500Y-66550000D03*
%TO.P,U1,32,PC7*%
%TO.N,COL3*%
X143037500Y-67350000D03*
%TO.P,U1,33,~{HWB}/PE2*%
%TO.N,Net-(U1-~{HWB}{slash}PE2)*%
X143037500Y-68150000D03*
D21*
%TO.P,U1,34,VCC*%
%TO.N,+5V*%
X141337500Y-69850000D03*
%TO.P,U1,35,GND*%
%TO.N,GND*%
X140537500Y-69850000D03*
%TO.P,U1,36,PF7*%
%TO.N,unconnected-(U1-PF7-Pad36)*%
X139737500Y-69850000D03*
%TO.P,U1,37,PF6*%
%TO.N,unconnected-(U1-PF6-Pad37)*%
X138937500Y-69850000D03*
%TO.P,U1,38,PF5*%
%TO.N,unconnected-(U1-PF5-Pad38)*%
X138137500Y-69850000D03*
%TO.P,U1,39,PF4*%
%TO.N,unconnected-(U1-PF4-Pad39)*%
X137337500Y-69850000D03*
%TO.P,U1,40,PF1*%
%TO.N,unconnected-(U1-PF1-Pad40)*%
X136537500Y-69850000D03*
%TO.P,U1,41,PF0*%
%TO.N,unconnected-(U1-PF0-Pad41)*%
X135737500Y-69850000D03*
%TO.P,U1,42,AREF*%
%TO.N,unconnected-(U1-AREF-Pad42)*%
X134937500Y-69850000D03*
%TO.P,U1,43,GND*%
%TO.N,GND*%
X134137500Y-69850000D03*
%TO.P,U1,44,AVCC*%
%TO.N,+5V*%
X133337500Y-69850000D03*
%TD*%
D11*
%TO.P,D8,1,K*%
%TO.N,ROW1*%
X222250000Y-54768750D03*
%TO.P,D8,2,A*%
%TO.N,Net-(D8-A)*%
X222250000Y-51468750D03*
%TD*%
D15*
%TO.P,R4,1*%
%TO.N,Net-(U1-~{HWB}{slash}PE2)*%
X145375000Y-68937500D03*
%TO.P,R4,2*%
%TO.N,GND*%
X145375000Y-70762500D03*
%TD*%
D22*
%TO.P,Y1,1,1*%
%TO.N,Net-(U1-XTAL1)*%
X138112500Y-46193750D03*
%TO.P,Y1,2,2*%
%TO.N,GND*%
X135912500Y-46193750D03*
%TO.P,Y1,3,3*%
%TO.N,Net-(U1-XTAL2)*%
X135912500Y-44493750D03*
%TO.P,Y1,4,4*%
%TO.N,GND*%
X138112500Y-44493750D03*
%TD*%
D23*
%TO.P,F1,1*%
%TO.N,VCC*%
X132368750Y-35906250D03*
%TO.P,F1,2*%
%TO.N,+5V*%
X132368750Y-38706250D03*
%TD*%
D11*
%TO.P,D3,1,K*%
%TO.N,ROW0*%
X203200000Y-35718750D03*
%TO.P,D3,2,A*%
%TO.N,Net-(D3-A)*%
X203200000Y-32418750D03*
%TD*%
D19*
%TO.P,C1,1*%
%TO.N,GND*%
X141287500Y-44450000D03*
%TO.P,C1,2*%
%TO.N,Net-(U1-XTAL1)*%
X141287500Y-46350000D03*
%TD*%
D11*
%TO.P,D6,1,K*%
%TO.N,ROW1*%
X184150000Y-54768750D03*
%TO.P,D6,2,A*%
%TO.N,Net-(D6-A)*%
X184150000Y-51468750D03*
%TD*%
D18*
%TO.P,C4,1*%
%TO.N,+5V*%
X145256250Y-61118750D03*
%TO.P,C4,2*%
%TO.N,GND*%
X145256250Y-59218750D03*
%TD*%
D11*
%TO.P,D7,1,K*%
%TO.N,ROW1*%
X203200000Y-54768750D03*
%TO.P,D7,2,A*%
%TO.N,Net-(D7-A)*%
X203200000Y-51468750D03*
%TD*%
D24*
%TO.N,+5V*%
X132556250Y-53181250D03*
X130008250Y-61912500D03*
X130175000Y-67350000D03*
X132556250Y-75406250D03*
X143577367Y-72933617D03*
X146843750Y-61118750D03*
%TO.N,Net-(U1-~{RESET})*%
X141287500Y-91281250D03*
X129381250Y-55562500D03*
%TD*%
D25*
%TO.N,GND*%
X130968750Y-46037500D02*
X130968750Y-43656250D01*
X137318750Y-42862500D02*
X138112500Y-43656250D01*
D26*
X138156250Y-44450000D02*
X138112500Y-44493750D01*
D25*
X131762500Y-42862500D02*
X137318750Y-42862500D01*
D26*
X136166500Y-46193750D02*
X137866500Y-44493750D01*
D25*
X132712500Y-46350000D02*
X132712500Y-46925606D01*
X145375000Y-70762500D02*
X145375000Y-72112500D01*
X140493750Y-74612500D02*
X140493750Y-73181250D01*
X135737500Y-53181250D02*
X135737500Y-58450000D01*
X135731250Y-58737500D02*
X135737500Y-58731250D01*
X129381250Y-65243750D02*
X129675000Y-64950000D01*
X132556250Y-77787500D02*
X134143750Y-76200000D01*
X138550250Y-62393750D02*
X138550250Y-66319000D01*
X132768500Y-64950000D02*
X134137500Y-66319000D01*
X131281250Y-46350000D02*
X130968750Y-46037500D01*
D26*
X135912500Y-46193750D02*
X136166500Y-46193750D01*
D25*
X140537500Y-72825000D02*
X140337500Y-73025000D01*
X135887500Y-46193750D02*
X135731250Y-46037500D01*
X140537500Y-68306250D02*
X140537500Y-69850000D01*
X134137500Y-72706250D02*
X134137500Y-69850000D01*
X131637500Y-64950000D02*
X132768500Y-64950000D01*
D26*
X141243750Y-44493750D02*
X141287500Y-44450000D01*
D25*
X134137500Y-66319000D02*
X134137500Y-69850000D01*
X140794000Y-60150000D02*
X143037500Y-60150000D01*
X132712500Y-46925606D02*
X135737500Y-49950606D01*
X134137500Y-66319000D02*
X138550250Y-66319000D01*
X135737500Y-58450000D02*
X135737500Y-58731250D01*
D26*
X137866500Y-44493750D02*
X138112500Y-44493750D01*
D25*
X135737500Y-59581000D02*
X138550250Y-62393750D01*
X138112500Y-43656250D02*
X138112500Y-44493750D01*
X143968750Y-59218750D02*
X143037500Y-60150000D01*
X135737500Y-58450000D02*
X135737500Y-59581000D01*
X138550250Y-66319000D02*
X140537500Y-68306250D01*
X140493750Y-39687500D02*
X137318750Y-42862500D01*
X142875000Y-74612500D02*
X140493750Y-74612500D01*
X130968750Y-43656250D02*
X131762500Y-42862500D01*
X140493750Y-73181250D02*
X140337500Y-73025000D01*
X145375000Y-72112500D02*
X142875000Y-74612500D01*
X134456250Y-75093750D02*
X134456250Y-73025000D01*
X134143750Y-76200000D02*
X134143750Y-75406250D01*
X145256250Y-59218750D02*
X143968750Y-59218750D01*
X140537500Y-69850000D02*
X140537500Y-72825000D01*
D26*
X141287500Y-44450000D02*
X138156250Y-44450000D01*
D25*
X135425000Y-52868750D02*
X135737500Y-53181250D01*
X133350000Y-98425000D02*
X132556250Y-97631250D01*
X134143750Y-75406250D02*
X134456250Y-75093750D01*
X134937500Y-98425000D02*
X133350000Y-98425000D01*
X134143750Y-52868750D02*
X135425000Y-52868750D01*
X129675000Y-64950000D02*
X131637500Y-64950000D01*
X132556250Y-97631250D02*
X132556250Y-77787500D01*
X138550250Y-62393750D02*
X140794000Y-60150000D01*
X135737500Y-49950606D02*
X135737500Y-53181250D01*
X134456250Y-73025000D02*
X134137500Y-72706250D01*
X140493750Y-32606250D02*
X140493750Y-39687500D01*
X132712500Y-46350000D02*
X131281250Y-46350000D01*
X140493750Y-32606250D02*
X139718750Y-31831250D01*
X139718750Y-31831250D02*
X139718750Y-30956250D01*
D26*
%TO.N,Net-(U1-UCAP)*%
X130187500Y-64150000D02*
X131637500Y-64150000D01*
X129381250Y-63343750D02*
X130187500Y-64150000D01*
D25*
%TO.N,+5V*%
X130968750Y-53062500D02*
X132437500Y-53062500D01*
X132368750Y-38706250D02*
X126482500Y-44592500D01*
X141337500Y-72125000D02*
X142237500Y-73025000D01*
X134143750Y-54768750D02*
X134937500Y-55562500D01*
X131637500Y-63350000D02*
X130631500Y-63350000D01*
X145087500Y-60950000D02*
X143037500Y-60950000D01*
X145256250Y-61118750D02*
X145087500Y-60950000D01*
X126482500Y-66951250D02*
X126881250Y-67350000D01*
X126482500Y-44592500D02*
X126482500Y-66951250D01*
X145256250Y-61118750D02*
X146843750Y-61118750D01*
X126881250Y-67350000D02*
X131637500Y-67350000D01*
X134937500Y-55562500D02*
X134937500Y-58450000D01*
X130497000Y-63215500D02*
X130497000Y-62401250D01*
X142328883Y-72933617D02*
X142237500Y-73025000D01*
X130497000Y-62401250D02*
X130008250Y-61912500D01*
X132556250Y-53181250D02*
X134143750Y-54768750D01*
X141337500Y-69850000D02*
X141337500Y-72125000D01*
X132556250Y-75406250D02*
X132556250Y-73025000D01*
X133337500Y-72243750D02*
X132556250Y-73025000D01*
X132437500Y-53062500D02*
X132556250Y-53181250D01*
X143577367Y-72933617D02*
X142328883Y-72933617D01*
X133337500Y-69850000D02*
X133337500Y-72243750D01*
X130631500Y-63350000D02*
X130497000Y-63215500D01*
D26*
%TO.N,Net-(U1-XTAL1)*%
X137337500Y-46968750D02*
X137337500Y-58450000D01*
X138112500Y-46193750D02*
X137337500Y-46968750D01*
X138268750Y-46350000D02*
X138112500Y-46193750D01*
X141287500Y-46350000D02*
X138268750Y-46350000D01*
%TO.N,Net-(U1-XTAL2)*%
X135912500Y-44493750D02*
X135812500Y-44493750D01*
X135868750Y-44450000D02*
X135912500Y-44493750D01*
X132712500Y-44450000D02*
X135868750Y-44450000D01*
X134143750Y-46162500D02*
X134143750Y-47625000D01*
X135812500Y-44493750D02*
X134143750Y-46162500D01*
X136537500Y-50018750D02*
X136537500Y-58450000D01*
X134143750Y-47625000D02*
X136537500Y-50018750D01*
%TO.N,Net-(D1-A)*%
X159702500Y-29051250D02*
X161732500Y-29051250D01*
X161732500Y-29051250D02*
X165100000Y-32418750D01*
%TO.N,ROW0*%
X182562500Y-37306250D02*
X166687500Y-37306250D01*
X184150000Y-35718750D02*
X182562500Y-37306250D01*
X146903462Y-61945750D02*
X147470750Y-61378462D01*
X220662500Y-37306250D02*
X204787500Y-37306250D01*
X166687500Y-37306250D02*
X165100000Y-35718750D01*
X143233250Y-61945750D02*
X146903462Y-61945750D01*
X143037500Y-61750000D02*
X143233250Y-61945750D01*
X203200000Y-35718750D02*
X201612500Y-37306250D01*
X201612500Y-37306250D02*
X185737500Y-37306250D01*
X147470750Y-53348000D02*
X165100000Y-35718750D01*
X147470750Y-61378462D02*
X147470750Y-53348000D01*
X222250000Y-35718750D02*
X220662500Y-37306250D01*
X185737500Y-37306250D02*
X184150000Y-35718750D01*
X204787500Y-37306250D02*
X203200000Y-35718750D01*
%TO.N,Net-(D2-A)*%
X178752500Y-29051250D02*
X180782500Y-29051250D01*
X180782500Y-29051250D02*
X184150000Y-32418750D01*
%TO.N,Net-(D3-A)*%
X199832500Y-29051250D02*
X203200000Y-32418750D01*
X197802500Y-29051250D02*
X199832500Y-29051250D01*
%TO.N,Net-(D4-A)*%
X218882500Y-29051250D02*
X222250000Y-32418750D01*
X216852500Y-29051250D02*
X218882500Y-29051250D01*
%TO.N,ROW1*%
X156518750Y-63350000D02*
X165100000Y-54768750D01*
X182562500Y-56356250D02*
X184150000Y-54768750D01*
X166687500Y-56356250D02*
X182562500Y-56356250D01*
X184150000Y-54768750D02*
X185737500Y-56356250D01*
X203200000Y-54768750D02*
X204787500Y-56356250D01*
X204787500Y-56356250D02*
X220662500Y-56356250D01*
X185737500Y-56356250D02*
X201612500Y-56356250D01*
X165100000Y-54768750D02*
X166687500Y-56356250D01*
X201612500Y-56356250D02*
X203200000Y-54768750D01*
X143037500Y-63350000D02*
X156518750Y-63350000D01*
X220662500Y-56356250D02*
X222250000Y-54768750D01*
%TO.N,Net-(D5-A)*%
X161732500Y-48101250D02*
X165100000Y-51468750D01*
X159702500Y-48101250D02*
X161732500Y-48101250D01*
%TO.N,Net-(D6-A)*%
X180782500Y-48101250D02*
X184150000Y-51468750D01*
X178752500Y-48101250D02*
X180782500Y-48101250D01*
%TO.N,Net-(D7-A)*%
X199832500Y-48101250D02*
X203200000Y-51468750D01*
X197802500Y-48101250D02*
X199832500Y-48101250D01*
%TO.N,Net-(D8-A)*%
X216852500Y-48101250D02*
X218882500Y-48101250D01*
X218882500Y-48101250D02*
X222250000Y-51468750D01*
%TO.N,Net-(D9-A)*%
X159702500Y-67151250D02*
X161732500Y-67151250D01*
X161732500Y-67151250D02*
X165100000Y-70518750D01*
%TO.N,ROW2*%
X222250000Y-73943750D02*
X220787500Y-75406250D01*
X143037500Y-64950000D02*
X160918130Y-64950000D01*
X165100000Y-73818750D02*
X166687500Y-75406250D01*
X182562500Y-75406250D02*
X184150000Y-73818750D01*
X160918130Y-64950000D02*
X166290625Y-70322495D01*
X166290625Y-70322495D02*
X166290625Y-72628125D01*
X166290625Y-72628125D02*
X165100000Y-73818750D01*
X201737500Y-75406250D02*
X185737500Y-75406250D01*
X220787500Y-75406250D02*
X204662500Y-75406250D01*
X203200000Y-73943750D02*
X201737500Y-75406250D01*
X166687500Y-75406250D02*
X182562500Y-75406250D01*
X204662500Y-75406250D02*
X203200000Y-73943750D01*
X185737500Y-75406250D02*
X184150000Y-73818750D01*
%TO.N,Net-(D10-A)*%
X180782500Y-67151250D02*
X184150000Y-70518750D01*
X178752500Y-67151250D02*
X180782500Y-67151250D01*
%TO.N,Net-(D11-A)*%
X197802500Y-67151250D02*
X199707500Y-67151250D01*
X199707500Y-67151250D02*
X203200000Y-70643750D01*
%TO.N,Net-(D12-A)*%
X216852500Y-67151250D02*
X218757500Y-67151250D01*
X218757500Y-67151250D02*
X222250000Y-70643750D01*
%TO.N,Net-(D13-A)*%
X161732500Y-86201250D02*
X165100000Y-89568750D01*
X159702500Y-86201250D02*
X161732500Y-86201250D01*
%TO.N,ROW3*%
X182562500Y-94456250D02*
X184150000Y-92868750D01*
X166027000Y-91941750D02*
X165100000Y-92868750D01*
X185737500Y-94456250D02*
X201612500Y-94456250D01*
X201612500Y-94456250D02*
X203200000Y-92868750D01*
X204787500Y-94456250D02*
X220662500Y-94456250D01*
X165100000Y-92868750D02*
X166687500Y-94456250D01*
X220662500Y-94456250D02*
X222250000Y-92868750D01*
X160990500Y-83996750D02*
X166027000Y-89033250D01*
X160990500Y-72706291D02*
X160990500Y-83996750D01*
X203200000Y-92868750D02*
X204787500Y-94456250D01*
X166027000Y-89033250D02*
X166027000Y-91941750D01*
X184150000Y-92868750D02*
X185737500Y-94456250D01*
X166687500Y-94456250D02*
X182562500Y-94456250D01*
X154834209Y-66550000D02*
X160990500Y-72706291D01*
X143037500Y-66550000D02*
X154834209Y-66550000D01*
%TO.N,Net-(D14-A)*%
X180782500Y-86201250D02*
X184150000Y-89568750D01*
X178752500Y-86201250D02*
X180782500Y-86201250D01*
%TO.N,Net-(D15-A)*%
X199832500Y-86201250D02*
X203200000Y-89568750D01*
X197802500Y-86201250D02*
X199832500Y-86201250D01*
%TO.N,Net-(D16-A)*%
X216852500Y-86201250D02*
X218882500Y-86201250D01*
X218882500Y-86201250D02*
X222250000Y-89568750D01*
D25*
%TO.N,VCC*%
X136518750Y-31756250D02*
X136518750Y-30956250D01*
X132368750Y-35906250D02*
X136518750Y-31756250D01*
D26*
%TO.N,COL0*%
X148431250Y-53975000D02*
X151765000Y-50641250D01*
X148431250Y-61060014D02*
X148431250Y-53975000D01*
X151765000Y-50641250D02*
X153352500Y-50641250D01*
X143037500Y-62550000D02*
X146941264Y-62550000D01*
X146941264Y-62550000D02*
X148431250Y-61060014D01*
%TO.N,COL1*%
X166861250Y-64150000D02*
X172402500Y-69691250D01*
X143037500Y-64150000D02*
X166861250Y-64150000D01*
%TO.N,COL2*%
X143037500Y-65552000D02*
X142875000Y-65552000D01*
X143037500Y-65750000D02*
X143037500Y-65552000D01*
X156247811Y-65750000D02*
X161141561Y-70643750D01*
X143037500Y-65750000D02*
X156247811Y-65750000D01*
X186848750Y-84137500D02*
X191452500Y-88741250D01*
X164173000Y-70643750D02*
X164173000Y-74278630D01*
X174031870Y-84137500D02*
X186848750Y-84137500D01*
X164173000Y-74278630D02*
X174031870Y-84137500D01*
X161141561Y-70643750D02*
X164173000Y-70643750D01*
%TO.N,COL3*%
X164173000Y-90028630D02*
X164173000Y-93328630D01*
X165754620Y-94910250D02*
X221595380Y-94910250D01*
X217411880Y-83343750D02*
X215900000Y-83343750D01*
X147518750Y-67350000D02*
X151148000Y-70979250D01*
X164173000Y-93328630D02*
X165754620Y-94910250D01*
X221595380Y-94910250D02*
X223177000Y-93328630D01*
X152601095Y-70979250D02*
X153853095Y-72231250D01*
X143037500Y-67350000D02*
X147518750Y-67350000D01*
X153853095Y-72231250D02*
X153853095Y-82405284D01*
X223177000Y-89108870D02*
X217411880Y-83343750D01*
X223177000Y-93328630D02*
X223177000Y-89108870D01*
X151148000Y-70979250D02*
X152601095Y-70979250D01*
X161476441Y-90028630D02*
X164173000Y-90028630D01*
X153853095Y-82405284D02*
X161476441Y-90028630D01*
X215900000Y-83343750D02*
X210502500Y-88741250D01*
%TO.N,Net-(U1-D-)*%
X131637500Y-66550000D02*
X128497520Y-66550000D01*
X128497520Y-66550000D02*
X127000000Y-65052480D01*
X127000000Y-65052480D02*
X127000000Y-46037500D01*
X127000000Y-46037500D02*
X136525000Y-36512500D01*
%TO.N,Net-(U1-~{HWB}{slash}PE2)*%
X143825000Y-68937500D02*
X143037500Y-68150000D01*
X145375000Y-68937500D02*
X143825000Y-68937500D01*
D27*
%TO.N,D+*%
X138118750Y-33900000D02*
X138906250Y-34687500D01*
X138118750Y-30956250D02*
X138118750Y-33900000D01*
D26*
%TO.N,Net-(U1-D+)*%
X127793750Y-46099394D02*
X127793750Y-65204178D01*
X138906250Y-36512500D02*
X138906250Y-37306250D01*
X130633500Y-65750000D02*
X131637500Y-65750000D01*
X138112500Y-38100000D02*
X135793144Y-38100000D01*
X127793750Y-65204178D02*
X128660322Y-66070750D01*
X138906250Y-37306250D02*
X138112500Y-38100000D01*
X135793144Y-38100000D02*
X127793750Y-46099394D01*
X128660322Y-66070750D02*
X130312750Y-66070750D01*
X130312750Y-66070750D02*
X130633500Y-65750000D01*
D27*
%TO.N,D-*%
X137318750Y-33893750D02*
X136525000Y-34687500D01*
X137318750Y-30956250D02*
X137318750Y-33893750D01*
D26*
%TO.N,Net-(U1-~{RESET})*%
X130293750Y-55562500D02*
X130968750Y-54887500D01*
X129381250Y-55562500D02*
X130293750Y-55562500D01*
X141137500Y-94725000D02*
X141137500Y-91431250D01*
X141137500Y-91431250D02*
X141287500Y-91281250D01*
X134137500Y-57356250D02*
X134137500Y-58450000D01*
X131668750Y-54887500D02*
X134137500Y-57356250D01*
X130968750Y-54887500D02*
X131668750Y-54887500D01*
%TD*%
%TA.AperFunction,Conductor*%
%TO.N,GND*%
G36*
X143611789Y-42088435D02*
G01*
X143657544Y-42141239D01*
X143668750Y-42192750D01*
X143668750Y-57819750D01*
X143649065Y-57886789D01*
X143596261Y-57932544D01*
X143544750Y-57943750D01*
X142236999Y-57943750D01*
X142169960Y-57924065D01*
X142124205Y-57871261D01*
X142112999Y-57819750D01*
X142112999Y-57652129D01*
X142112998Y-57652123D01*
X142112997Y-57652116D01*
X142106591Y-57592517D01*
X142056296Y-57457669D01*
X142056295Y-57457668D01*
X142056293Y-57457664D01*
X141970047Y-57342455D01*
X141970044Y-57342452D01*
X141854835Y-57256206D01*
X141854828Y-57256202D01*
X141719986Y-57205910D01*
X141719985Y-57205909D01*
X141719983Y-57205909D01*
X141660373Y-57199500D01*
X141660363Y-57199500D01*
X141014629Y-57199500D01*
X141014620Y-57199501D01*
X140950748Y-57206367D01*
X140924242Y-57206367D01*
X140919983Y-57205909D01*
X140860373Y-57199500D01*
X140860364Y-57199500D01*
X140214629Y-57199500D01*
X140214620Y-57199501D01*
X140150748Y-57206367D01*
X140124242Y-57206367D01*
X140119983Y-57205909D01*
X140060373Y-57199500D01*
X140060364Y-57199500D01*
X139414629Y-57199500D01*
X139414620Y-57199501D01*
X139350748Y-57206367D01*
X139324242Y-57206367D01*
X139319983Y-57205909D01*
X139260373Y-57199500D01*
X139260364Y-57199500D01*
X138614629Y-57199500D01*
X138614620Y-57199501D01*
X138550748Y-57206367D01*
X138524242Y-57206367D01*
X138519983Y-57205909D01*
X138460373Y-57199500D01*
X138460367Y-57199500D01*
X138089000Y-57199500D01*
X138021961Y-57179815D01*
X137976206Y-57127011D01*
X137965000Y-57075500D01*
X137965000Y-47418249D01*
X137984685Y-47351210D01*
X138037489Y-47305455D01*
X138089000Y-47294249D01*
X138860371Y-47294249D01*
X138860372Y-47294249D01*
X138919983Y-47287841D01*
X139054831Y-47237546D01*
X139170046Y-47151296D01*
X139231910Y-47068657D01*
X139261612Y-47028981D01*
X139264191Y-47030911D01*
X139302405Y-46992681D01*
X139361856Y-46977500D01*
X140094356Y-46977500D01*
X140161395Y-46997185D01*
X140199894Y-47036403D01*
X140219788Y-47068656D01*
X140343844Y-47192712D01*
X140493166Y-47284814D01*
X140659703Y-47339999D01*
X140762491Y-47350500D01*
X141812508Y-47350499D01*
X141812516Y-47350498D01*
X141812519Y-47350498D01*
X141868802Y-47344748D01*
X141915297Y-47339999D01*
X142081834Y-47284814D01*
X142231156Y-47192712D01*
X142355212Y-47068656D01*
X142447314Y-46919334D01*
X142502499Y-46752797D01*
X142513000Y-46650009D01*
X142512999Y-46049992D01*
X142502499Y-45947203D01*
X142447314Y-45780666D01*
X142355212Y-45631344D01*
X142231156Y-45507288D01*
X142227842Y-45505243D01*
X142226046Y-45503248D01*
X142225489Y-45502807D01*
X142225564Y-45502711D01*
X142181118Y-45453297D01*
X142169897Y-45384334D01*
X142197740Y-45320252D01*
X142227848Y-45294165D01*
X142230842Y-45292318D01*
X142354815Y-45168345D01*
X142446856Y-45019124D01*
X142446858Y-45019119D01*
X142502005Y-44852697D01*
X142502006Y-44852690D01*
X142512499Y-44749986D01*
X142512500Y-44749973D01*
X142512500Y-44700000D01*
X140062501Y-44700000D01*
X140062501Y-44749986D01*
X140072994Y-44852697D01*
X140128141Y-45019119D01*
X140128143Y-45019124D01*
X140220184Y-45168345D01*
X140344155Y-45292316D01*
X140344159Y-45292319D01*
X140347156Y-45294168D01*
X140348779Y-45295972D01*
X140349823Y-45296798D01*
X140349681Y-45296976D01*
X140393881Y-45346116D01*
X140405102Y-45415079D01*
X140377259Y-45479161D01*
X140347161Y-45505241D01*
X140343849Y-45507283D01*
X140343843Y-45507288D01*
X140219789Y-45631342D01*
X140219787Y-45631345D01*
X140199894Y-45663597D01*
X140147946Y-45710322D01*
X140094356Y-45722500D01*
X139436999Y-45722500D01*
X139369960Y-45702815D01*
X139324205Y-45650011D01*
X139312999Y-45598500D01*
X139312999Y-45545879D01*
X139312998Y-45545873D01*
X139308693Y-45505826D01*
X139306591Y-45486267D01*
X139294511Y-45453880D01*
X139269331Y-45386368D01*
X139264347Y-45316677D01*
X139269331Y-45299701D01*
X139306097Y-45201126D01*
X139306098Y-45201122D01*
X139312499Y-45141594D01*
X139312500Y-45141577D01*
X139312500Y-44743750D01*
X137986500Y-44743750D01*
X137919461Y-44724065D01*
X137873706Y-44671261D01*
X137862500Y-44619750D01*
X137862500Y-43393750D01*
X138362500Y-43393750D01*
X138362500Y-44243750D01*
X139312500Y-44243750D01*
X139312500Y-44200000D01*
X140062500Y-44200000D01*
X141037500Y-44200000D01*
X141037500Y-43450000D01*
X141537500Y-43450000D01*
X141537500Y-44200000D01*
X142512499Y-44200000D01*
X142512499Y-44150028D01*
X142512498Y-44150013D01*
X142502005Y-44047302D01*
X142446858Y-43880880D01*
X142446856Y-43880875D01*
X142354815Y-43731654D01*
X142230845Y-43607684D01*
X142081624Y-43515643D01*
X142081619Y-43515641D01*
X141915197Y-43460494D01*
X141915190Y-43460493D01*
X141812486Y-43450000D01*
X141537500Y-43450000D01*
X141037500Y-43450000D01*
X140762529Y-43450000D01*
X140762512Y-43450001D01*
X140659802Y-43460494D01*
X140493380Y-43515641D01*
X140493375Y-43515643D01*
X140344154Y-43607684D01*
X140220184Y-43731654D01*
X140128143Y-43880875D01*
X140128141Y-43880880D01*
X140072994Y-44047302D01*
X140072993Y-44047309D01*
X140062500Y-44150013D01*
X140062500Y-44200000D01*
X139312500Y-44200000D01*
X139312500Y-43845922D01*
X139312499Y-43845905D01*
X139306098Y-43786377D01*
X139306096Y-43786370D01*
X139255854Y-43651663D01*
X139255850Y-43651656D01*
X139169690Y-43536562D01*
X139169687Y-43536559D01*
X139054593Y-43450399D01*
X139054586Y-43450395D01*
X138919879Y-43400153D01*
X138919872Y-43400151D01*
X138860344Y-43393750D01*
X138362500Y-43393750D01*
X137862500Y-43393750D01*
X137364655Y-43393750D01*
X137305127Y-43400151D01*
X137305120Y-43400153D01*
X137170413Y-43450395D01*
X137170410Y-43450397D01*
X137087227Y-43512668D01*
X137021762Y-43537085D01*
X136953489Y-43522233D01*
X136938606Y-43512668D01*
X136854831Y-43449954D01*
X136854828Y-43449952D01*
X136719982Y-43399658D01*
X136719983Y-43399658D01*
X136660383Y-43393251D01*
X136660381Y-43393250D01*
X136660373Y-43393250D01*
X136660364Y-43393250D01*
X135164629Y-43393250D01*
X135164623Y-43393251D01*
X135105016Y-43399658D01*
X134970171Y-43449952D01*
X134970164Y-43449956D01*
X134854955Y-43536202D01*
X134854952Y-43536205D01*
X134768706Y-43651414D01*
X134768702Y-43651421D01*
X134734981Y-43741833D01*
X134693110Y-43797767D01*
X134627645Y-43822184D01*
X134618799Y-43822500D01*
X133905644Y-43822500D01*
X133838605Y-43802815D01*
X133800106Y-43763597D01*
X133792813Y-43751774D01*
X133780212Y-43731344D01*
X133656156Y-43607288D01*
X133541490Y-43536562D01*
X133506836Y-43515187D01*
X133506831Y-43515185D01*
X133499232Y-43512667D01*
X133340297Y-43460001D01*
X133340295Y-43460000D01*
X133237510Y-43449500D01*
X132187498Y-43449500D01*
X132187480Y-43449501D01*
X132084703Y-43460000D01*
X132084700Y-43460001D01*
X131918168Y-43515185D01*
X131918163Y-43515187D01*
X131768842Y-43607289D01*
X131644789Y-43731342D01*
X131552687Y-43880663D01*
X131552685Y-43880668D01*
X131552615Y-43880880D01*
X131497501Y-44047203D01*
X131497501Y-44047204D01*
X131497500Y-44047204D01*
X131487000Y-44149983D01*
X131487000Y-44750001D01*
X131487001Y-44750019D01*
X131497500Y-44852796D01*
X131497501Y-44852799D01*
X131519707Y-44919811D01*
X131552686Y-45019334D01*
X131644788Y-45168656D01*
X131768844Y-45292712D01*
X131771200Y-45294165D01*
X131772153Y-45294753D01*
X131773945Y-45296746D01*
X131774511Y-45297193D01*
X131774434Y-45297289D01*
X131818879Y-45346699D01*
X131830103Y-45415661D01*
X131802261Y-45479744D01*
X131772165Y-45505826D01*
X131769160Y-45507679D01*
X131769155Y-45507683D01*
X131645184Y-45631654D01*
X131553143Y-45780875D01*
X131553141Y-45780880D01*
X131497994Y-45947302D01*
X131497993Y-45947309D01*
X131487500Y-46050013D01*
X131487500Y-46100000D01*
X132838500Y-46100000D01*
X132905539Y-46119685D01*
X132951294Y-46172489D01*
X132962500Y-46224000D01*
X132962500Y-47349999D01*
X133237472Y-47349999D01*
X133237486Y-47349998D01*
X133340197Y-47339505D01*
X133353241Y-47335183D01*
X133423069Y-47332778D01*
X133483113Y-47368507D01*
X133514308Y-47431026D01*
X133516250Y-47452887D01*
X133516250Y-47686807D01*
X133540362Y-47808027D01*
X133540364Y-47808035D01*
X133573812Y-47888785D01*
X133587665Y-47922229D01*
X133587670Y-47922239D01*
X133656338Y-48025007D01*
X133656341Y-48025011D01*
X135873681Y-50242350D01*
X135907166Y-50303673D01*
X135910000Y-50330031D01*
X135910000Y-57294441D01*
X135890315Y-57361480D01*
X135885267Y-57368752D01*
X135851767Y-57413502D01*
X135795833Y-57455373D01*
X135726141Y-57460357D01*
X135664818Y-57426872D01*
X135631334Y-57365548D01*
X135628500Y-57339191D01*
X135628500Y-55494439D01*
X135601946Y-55360948D01*
X135601945Y-55360947D01*
X135601945Y-55360943D01*
X135601943Y-55360938D01*
X135549857Y-55235190D01*
X135549855Y-55235187D01*
X135474236Y-55122014D01*
X135474230Y-55122007D01*
X135405568Y-55053345D01*
X135372083Y-54992022D01*
X135369249Y-54965664D01*
X135369249Y-54468748D01*
X135369248Y-54468731D01*
X135358749Y-54365953D01*
X135358748Y-54365950D01*
X135338771Y-54305663D01*
X135303564Y-54199416D01*
X135211462Y-54050094D01*
X135087406Y-53926038D01*
X135084092Y-53923993D01*
X135082296Y-53921998D01*
X135081739Y-53921557D01*
X135081814Y-53921461D01*
X135037368Y-53872047D01*
X135026147Y-53803084D01*
X135053990Y-53739002D01*
X135084098Y-53712915D01*
X135087092Y-53711068D01*
X135211065Y-53587095D01*
X135303106Y-53437874D01*
X135303108Y-53437869D01*
X135358255Y-53271447D01*
X135358256Y-53271440D01*
X135368749Y-53168736D01*
X135368750Y-53168723D01*
X135368750Y-53118750D01*
X134017750Y-53118750D01*
X133950711Y-53099065D01*
X133904956Y-53046261D01*
X133893750Y-52994750D01*
X133893750Y-51868750D01*
X134393750Y-51868750D01*
X134393750Y-52618750D01*
X135368749Y-52618750D01*
X135368749Y-52568778D01*
X135368748Y-52568763D01*
X135358255Y-52466052D01*
X135303108Y-52299630D01*
X135303106Y-52299625D01*
X135211065Y-52150404D01*
X135087095Y-52026434D01*
X134937874Y-51934393D01*
X134937869Y-51934391D01*
X134771447Y-51879244D01*
X134771440Y-51879243D01*
X134668736Y-51868750D01*
X134393750Y-51868750D01*
X133893750Y-51868750D01*
X133618779Y-51868750D01*
X133618762Y-51868751D01*
X133516052Y-51879244D01*
X133349630Y-51934391D01*
X133349625Y-51934393D01*
X133200404Y-52026434D01*
X133076434Y-52150404D01*
X132984393Y-52299625D01*
X132984390Y-52299633D01*
X132969607Y-52344244D01*
X132929834Y-52401688D01*
X132865318Y-52428510D01*
X132810948Y-52422280D01*
X132735507Y-52395882D01*
X132735499Y-52395880D01*
X132556255Y-52375685D01*
X132549291Y-52375685D01*
X132549291Y-52375357D01*
X132518415Y-52374057D01*
X132512868Y-52372954D01*
X132505558Y-52371500D01*
X132505557Y-52371500D01*
X132102980Y-52371500D01*
X132035941Y-52351815D01*
X132015299Y-52335181D01*
X131887407Y-52207289D01*
X131887406Y-52207288D01*
X131738084Y-52115186D01*
X131571547Y-52060001D01*
X131571545Y-52060000D01*
X131468766Y-52049500D01*
X131092750Y-52049500D01*
X131025711Y-52029815D01*
X130979956Y-51977011D01*
X130968750Y-51925500D01*
X130968750Y-46600000D01*
X131487501Y-46600000D01*
X131487501Y-46649986D01*
X131497994Y-46752697D01*
X131553141Y-46919119D01*
X131553143Y-46919124D01*
X131645184Y-47068345D01*
X131769154Y-47192315D01*
X131918375Y-47284356D01*
X131918380Y-47284358D01*
X132084802Y-47339505D01*
X132084809Y-47339506D01*
X132187519Y-47349999D01*
X132462499Y-47349999D01*
X132462500Y-47349998D01*
X132462500Y-46600000D01*
X131487501Y-46600000D01*
X130968750Y-46600000D01*
X130968750Y-43863175D01*
X130988435Y-43796136D01*
X131005069Y-43775494D01*
X132675494Y-42105069D01*
X132736817Y-42071584D01*
X132763175Y-42068750D01*
X143544750Y-42068750D01*
X143611789Y-42088435D01*
G37*
%TD.AperFunction*%
%TA.AperFunction,Conductor*%
G36*
X136105539Y-45963435D02*
G01*
X136151294Y-46016239D01*
X136162500Y-46067750D01*
X136162500Y-47293750D01*
X136586000Y-47293750D01*
X136653039Y-47313435D01*
X136698794Y-47366239D01*
X136710000Y-47417750D01*
X136710000Y-49004469D01*
X136690315Y-49071508D01*
X136637511Y-49117263D01*
X136568353Y-49127207D01*
X136504797Y-49098182D01*
X136498319Y-49092150D01*
X134851738Y-47445569D01*
X134818253Y-47384246D01*
X134823237Y-47314554D01*
X134865109Y-47258621D01*
X134930573Y-47234204D01*
X134982752Y-47241706D01*
X135105120Y-47287346D01*
X135105127Y-47287348D01*
X135164655Y-47293749D01*
X135164672Y-47293750D01*
X135662500Y-47293750D01*
X135662500Y-46067750D01*
X135682185Y-46000711D01*
X135734989Y-45954956D01*
X135786500Y-45943750D01*
X136038500Y-45943750D01*
X136105539Y-45963435D01*
G37*
%TD.AperFunction*%
%TD*%
%TA.AperFunction,Conductor*%
%TO.N,GND*%
G36*
X135904955Y-59557547D02*
G01*
X135937809Y-59582141D01*
X135979681Y-59638074D01*
X135987500Y-59681409D01*
X135987500Y-59700000D01*
X136060328Y-59700000D01*
X136060339Y-59699999D01*
X136121895Y-59693380D01*
X136148409Y-59693380D01*
X136155014Y-59694090D01*
X136155017Y-59694091D01*
X136214627Y-59700500D01*
X136860372Y-59700499D01*
X136919983Y-59694091D01*
X136919986Y-59694089D01*
X136924244Y-59693632D01*
X136950754Y-59693632D01*
X136955014Y-59694089D01*
X136955017Y-59694091D01*
X137014627Y-59700500D01*
X137660372Y-59700499D01*
X137719983Y-59694091D01*
X137719986Y-59694089D01*
X137724244Y-59693632D01*
X137750754Y-59693632D01*
X137755014Y-59694089D01*
X137755017Y-59694091D01*
X137814627Y-59700500D01*
X138460372Y-59700499D01*
X138519983Y-59694091D01*
X138519986Y-59694089D01*
X138524244Y-59693632D01*
X138550754Y-59693632D01*
X138555014Y-59694089D01*
X138555017Y-59694091D01*
X138614627Y-59700500D01*
X139260372Y-59700499D01*
X139319983Y-59694091D01*
X139319986Y-59694089D01*
X139324244Y-59693632D01*
X139350754Y-59693632D01*
X139355014Y-59694089D01*
X139355017Y-59694091D01*
X139414627Y-59700500D01*
X140060372Y-59700499D01*
X140119983Y-59694091D01*
X140119986Y-59694089D01*
X140124244Y-59693632D01*
X140150754Y-59693632D01*
X140155014Y-59694089D01*
X140155017Y-59694091D01*
X140214627Y-59700500D01*
X140860372Y-59700499D01*
X140919983Y-59694091D01*
X140919986Y-59694089D01*
X140924244Y-59693632D01*
X140950754Y-59693632D01*
X140955014Y-59694089D01*
X140955017Y-59694091D01*
X141014627Y-59700500D01*
X141660372Y-59700499D01*
X141663500Y-59700499D01*
X141730539Y-59720183D01*
X141776294Y-59772987D01*
X141787500Y-59824499D01*
X141787500Y-59900000D01*
X142081250Y-59900000D01*
X142081250Y-60217745D01*
X142045171Y-60231202D01*
X142045164Y-60231206D01*
X141929956Y-60317452D01*
X141929955Y-60317453D01*
X141929954Y-60317454D01*
X141905356Y-60350312D01*
X141849424Y-60392182D01*
X141806091Y-60400000D01*
X141787500Y-60400000D01*
X141787500Y-60472844D01*
X141794119Y-60534398D01*
X141794120Y-60560909D01*
X141793409Y-60567514D01*
X141793409Y-60567517D01*
X141787000Y-60627127D01*
X141787000Y-60627134D01*
X141787000Y-60627135D01*
X141787000Y-61272870D01*
X141787001Y-61272879D01*
X141793867Y-61336751D01*
X141793867Y-61363257D01*
X141793409Y-61367516D01*
X141793409Y-61367517D01*
X141787000Y-61427127D01*
X141787000Y-61427129D01*
X141787000Y-61427133D01*
X141787000Y-62072870D01*
X141787001Y-62072879D01*
X141793867Y-62136751D01*
X141793867Y-62163257D01*
X141793409Y-62167516D01*
X141793409Y-62167517D01*
X141787000Y-62227127D01*
X141787000Y-62227129D01*
X141787000Y-62227133D01*
X141787000Y-62872870D01*
X141787001Y-62872879D01*
X141793867Y-62936751D01*
X141793867Y-62963257D01*
X141793409Y-62967516D01*
X141793409Y-62967517D01*
X141787000Y-63027127D01*
X141787000Y-63027129D01*
X141787000Y-63027133D01*
X141787000Y-63672870D01*
X141787001Y-63672879D01*
X141793867Y-63736751D01*
X141793867Y-63763257D01*
X141793409Y-63767516D01*
X141793409Y-63767517D01*
X141787000Y-63827127D01*
X141787000Y-63827129D01*
X141787000Y-63827133D01*
X141787000Y-64472870D01*
X141787001Y-64472879D01*
X141793867Y-64536751D01*
X141793867Y-64563257D01*
X141793409Y-64567516D01*
X141793409Y-64567517D01*
X141787000Y-64627127D01*
X141787000Y-64627132D01*
X141787000Y-64627133D01*
X141787000Y-65272870D01*
X141787001Y-65272879D01*
X141793867Y-65336751D01*
X141793867Y-65363257D01*
X141793409Y-65367516D01*
X141793409Y-65367517D01*
X141787000Y-65427127D01*
X141787000Y-65427129D01*
X141787000Y-65427133D01*
X141787000Y-66072870D01*
X141787001Y-66072879D01*
X141793867Y-66136751D01*
X141793867Y-66163257D01*
X141793409Y-66167516D01*
X141793409Y-66167517D01*
X141787000Y-66227127D01*
X141787000Y-66227129D01*
X141787000Y-66227133D01*
X141787000Y-66872870D01*
X141787001Y-66872879D01*
X141793867Y-66936751D01*
X141793867Y-66963257D01*
X141793409Y-66967516D01*
X141793409Y-66967517D01*
X141787000Y-67027127D01*
X141787000Y-67027129D01*
X141787000Y-67027133D01*
X141787000Y-67672870D01*
X141787001Y-67672879D01*
X141793867Y-67736751D01*
X141793867Y-67763257D01*
X141793409Y-67767516D01*
X141793409Y-67767517D01*
X141787000Y-67827127D01*
X141787000Y-67827129D01*
X141787000Y-67827133D01*
X141787000Y-68475500D01*
X141767315Y-68542539D01*
X141714511Y-68588294D01*
X141663000Y-68599500D01*
X141014629Y-68599500D01*
X141014625Y-68599501D01*
X140966660Y-68604657D01*
X140955017Y-68605909D01*
X140955016Y-68605909D01*
X140948404Y-68606620D01*
X140921893Y-68606619D01*
X140860342Y-68600000D01*
X140787500Y-68600000D01*
X140787500Y-68618590D01*
X140767815Y-68685629D01*
X140737813Y-68717856D01*
X140704951Y-68742456D01*
X140636766Y-68833540D01*
X140580832Y-68875411D01*
X140511141Y-68880395D01*
X140449818Y-68846909D01*
X140438234Y-68833540D01*
X140370048Y-68742456D01*
X140370046Y-68742455D01*
X140370046Y-68742454D01*
X140337186Y-68717855D01*
X140295317Y-68661921D01*
X140287500Y-68618590D01*
X140287500Y-68600000D01*
X140214666Y-68600000D01*
X140153095Y-68606619D01*
X140126588Y-68606619D01*
X140117318Y-68605622D01*
X140060373Y-68599500D01*
X140060365Y-68599500D01*
X139414629Y-68599500D01*
X139414620Y-68599501D01*
X139350748Y-68606367D01*
X139324242Y-68606367D01*
X139319983Y-68605909D01*
X139260373Y-68599500D01*
X139260364Y-68599500D01*
X138614629Y-68599500D01*
X138614620Y-68599501D01*
X138550748Y-68606367D01*
X138524242Y-68606367D01*
X138519983Y-68605909D01*
X138460373Y-68599500D01*
X138460364Y-68599500D01*
X137814629Y-68599500D01*
X137814620Y-68599501D01*
X137750748Y-68606367D01*
X137724242Y-68606367D01*
X137719983Y-68605909D01*
X137660373Y-68599500D01*
X137660364Y-68599500D01*
X137014629Y-68599500D01*
X137014620Y-68599501D01*
X136950748Y-68606367D01*
X136924242Y-68606367D01*
X136919983Y-68605909D01*
X136860373Y-68599500D01*
X136860364Y-68599500D01*
X136214629Y-68599500D01*
X136214620Y-68599501D01*
X136150748Y-68606367D01*
X136124242Y-68606367D01*
X136119983Y-68605909D01*
X136060373Y-68599500D01*
X136060364Y-68599500D01*
X135414629Y-68599500D01*
X135414620Y-68599501D01*
X135350748Y-68606367D01*
X135324242Y-68606367D01*
X135319983Y-68605909D01*
X135260373Y-68599500D01*
X135260364Y-68599500D01*
X134614629Y-68599500D01*
X134614625Y-68599501D01*
X134566660Y-68604657D01*
X134555017Y-68605909D01*
X134555016Y-68605909D01*
X134548404Y-68606620D01*
X134521893Y-68606619D01*
X134460342Y-68600000D01*
X134387500Y-68600000D01*
X134387500Y-68618590D01*
X134367815Y-68685629D01*
X134337813Y-68717856D01*
X134304951Y-68742456D01*
X134236766Y-68833540D01*
X134180832Y-68875411D01*
X134111141Y-68880395D01*
X134049818Y-68846909D01*
X134038234Y-68833540D01*
X133970048Y-68742456D01*
X133970046Y-68742455D01*
X133970046Y-68742454D01*
X133937186Y-68717855D01*
X133895317Y-68661921D01*
X133887500Y-68618590D01*
X133887500Y-68600000D01*
X133814666Y-68600000D01*
X133753095Y-68606619D01*
X133726588Y-68606619D01*
X133714779Y-68605349D01*
X133660373Y-68599500D01*
X133660367Y-68599500D01*
X133011999Y-68599500D01*
X132944960Y-68579815D01*
X132899205Y-68527011D01*
X132887999Y-68475500D01*
X132887999Y-68472882D01*
X132888000Y-68472873D01*
X132887999Y-67827128D01*
X132881591Y-67767517D01*
X132881589Y-67767513D01*
X132881132Y-67763255D01*
X132881132Y-67736745D01*
X132881589Y-67732486D01*
X132881591Y-67732483D01*
X132888000Y-67672873D01*
X132887999Y-67027128D01*
X132881591Y-66967517D01*
X132881589Y-66967513D01*
X132881132Y-66963255D01*
X132881132Y-66936745D01*
X132881589Y-66932486D01*
X132881591Y-66932483D01*
X132888000Y-66872873D01*
X132887999Y-66227128D01*
X132881591Y-66167517D01*
X132881589Y-66167513D01*
X132881132Y-66163255D01*
X132881132Y-66136745D01*
X132881589Y-66132486D01*
X132881591Y-66132483D01*
X132888000Y-66072873D01*
X132887999Y-65427128D01*
X132881591Y-65367517D01*
X132881590Y-65367516D01*
X132880880Y-65360904D01*
X132880881Y-65334393D01*
X132887499Y-65272842D01*
X132887500Y-65272827D01*
X132887500Y-65200000D01*
X132868909Y-65200000D01*
X132801870Y-65180315D01*
X132769644Y-65150313D01*
X132745046Y-65117454D01*
X132653957Y-65049265D01*
X132612088Y-64993333D01*
X132607104Y-64923641D01*
X132640589Y-64862318D01*
X132653952Y-64850738D01*
X132745046Y-64782546D01*
X132769643Y-64749687D01*
X132825576Y-64707818D01*
X132868909Y-64700000D01*
X132887500Y-64700000D01*
X132887500Y-64627172D01*
X132887499Y-64627160D01*
X132880880Y-64565604D01*
X132880880Y-64539090D01*
X132881590Y-64532485D01*
X132881591Y-64532483D01*
X132888000Y-64472873D01*
X132887999Y-63827128D01*
X132881591Y-63767517D01*
X132881589Y-63767513D01*
X132881132Y-63763255D01*
X132881132Y-63736745D01*
X132881589Y-63732486D01*
X132881591Y-63732483D01*
X132888000Y-63672873D01*
X132887999Y-63027128D01*
X132881591Y-62967517D01*
X132881589Y-62967513D01*
X132881132Y-62963255D01*
X132881132Y-62936745D01*
X132881589Y-62932486D01*
X132881591Y-62932483D01*
X132888000Y-62872873D01*
X132887999Y-62227128D01*
X132881591Y-62167517D01*
X132881589Y-62167513D01*
X132881132Y-62163255D01*
X132881132Y-62136745D01*
X132881589Y-62132486D01*
X132881591Y-62132483D01*
X132888000Y-62072873D01*
X132887999Y-61427128D01*
X132881591Y-61367517D01*
X132881589Y-61367513D01*
X132881132Y-61363255D01*
X132881132Y-61336745D01*
X132881589Y-61332486D01*
X132881591Y-61332483D01*
X132888000Y-61272873D01*
X132887999Y-60627128D01*
X132881591Y-60567517D01*
X132881589Y-60567513D01*
X132881132Y-60563255D01*
X132881132Y-60536745D01*
X132881589Y-60532486D01*
X132881591Y-60532483D01*
X132888000Y-60472873D01*
X132887999Y-59827128D01*
X132887999Y-59827127D01*
X132887999Y-59824499D01*
X132907683Y-59757460D01*
X132960487Y-59711705D01*
X133011999Y-59700499D01*
X133014618Y-59700499D01*
X133014627Y-59700500D01*
X133660372Y-59700499D01*
X133719983Y-59694091D01*
X133719986Y-59694089D01*
X133724244Y-59693632D01*
X133750754Y-59693632D01*
X133755014Y-59694089D01*
X133755017Y-59694091D01*
X133814627Y-59700500D01*
X134460372Y-59700499D01*
X134519983Y-59694091D01*
X134519986Y-59694089D01*
X134524244Y-59693632D01*
X134550754Y-59693632D01*
X134555014Y-59694089D01*
X134555017Y-59694091D01*
X134614627Y-59700500D01*
X135260372Y-59700499D01*
X135319983Y-59694091D01*
X135319983Y-59694090D01*
X135326596Y-59693380D01*
X135353107Y-59693381D01*
X135414657Y-59699999D01*
X135414672Y-59700000D01*
X135487500Y-59700000D01*
X135487500Y-59681409D01*
X135507185Y-59614370D01*
X135537191Y-59582141D01*
X135570046Y-59557546D01*
X135589731Y-59531250D01*
X135885269Y-59531250D01*
X135904955Y-59557547D01*
G37*
%TD.AperFunction*%
%TD*%
%TA.AperFunction,Conductor*%
%TO.N,GND*%
G36*
X140550580Y-25126435D02*
G01*
X140596335Y-25179239D01*
X140606279Y-25248397D01*
X140594026Y-25287045D01*
X140517194Y-25437835D01*
X140451503Y-25640010D01*
X140418250Y-25849963D01*
X140418250Y-27062536D01*
X140451503Y-27272489D01*
X140517194Y-27474664D01*
X140613701Y-27664070D01*
X140738640Y-27836036D01*
X140888963Y-27986359D01*
X141060929Y-28111298D01*
X141060931Y-28111299D01*
X141060934Y-28111301D01*
X141219796Y-28192245D01*
X141270591Y-28240218D01*
X141287500Y-28302729D01*
X141287500Y-29109770D01*
X141267815Y-29176809D01*
X141219795Y-29220255D01*
X141060930Y-29301201D01*
X140888963Y-29426140D01*
X140738644Y-29576459D01*
X140655517Y-29690874D01*
X140600187Y-29733539D01*
X140530573Y-29739518D01*
X140468778Y-29706912D01*
X140439017Y-29661321D01*
X140412104Y-29589163D01*
X140412100Y-29589156D01*
X140325940Y-29474062D01*
X140325937Y-29474059D01*
X140210843Y-29387899D01*
X140210836Y-29387895D01*
X140076129Y-29337653D01*
X140076122Y-29337651D01*
X140016594Y-29331250D01*
X139968750Y-29331250D01*
X139968750Y-31082250D01*
X139949065Y-31149289D01*
X139896261Y-31195044D01*
X139844750Y-31206250D01*
X139793250Y-31206250D01*
X139726211Y-31186565D01*
X139680456Y-31133761D01*
X139669250Y-31082250D01*
X139669249Y-29783379D01*
X139669248Y-29783373D01*
X139665492Y-29748434D01*
X139662841Y-29723767D01*
X139656554Y-29706912D01*
X139612547Y-29588921D01*
X139612543Y-29588914D01*
X139526297Y-29473705D01*
X139526296Y-29473704D01*
X139518435Y-29467819D01*
X139476566Y-29411883D01*
X139468750Y-29368555D01*
X139468750Y-29331250D01*
X139420905Y-29331250D01*
X139361374Y-29337651D01*
X139353823Y-29339436D01*
X139353434Y-29337792D01*
X139293098Y-29342103D01*
X139276364Y-29337189D01*
X139276241Y-29337160D01*
X139276233Y-29337159D01*
X139216623Y-29330750D01*
X139216613Y-29330750D01*
X138620879Y-29330750D01*
X138620873Y-29330751D01*
X138561270Y-29337158D01*
X138553724Y-29338942D01*
X138553378Y-29337480D01*
X138492372Y-29341834D01*
X138477350Y-29337422D01*
X138476232Y-29337158D01*
X138416632Y-29330751D01*
X138416623Y-29330750D01*
X138416613Y-29330750D01*
X137820879Y-29330750D01*
X137820873Y-29330751D01*
X137761270Y-29337158D01*
X137753724Y-29338942D01*
X137753378Y-29337480D01*
X137692372Y-29341834D01*
X137677350Y-29337422D01*
X137676232Y-29337158D01*
X137616632Y-29330751D01*
X137616623Y-29330750D01*
X137616613Y-29330750D01*
X137020879Y-29330750D01*
X137020873Y-29330751D01*
X136961270Y-29337158D01*
X136953724Y-29338942D01*
X136953378Y-29337480D01*
X136892372Y-29341834D01*
X136877350Y-29337422D01*
X136876232Y-29337158D01*
X136816632Y-29330751D01*
X136816623Y-29330750D01*
X136816613Y-29330750D01*
X136220879Y-29330750D01*
X136220873Y-29330751D01*
X136161266Y-29337158D01*
X136026421Y-29387452D01*
X136026414Y-29387456D01*
X135911205Y-29473702D01*
X135911202Y-29473705D01*
X135824956Y-29588914D01*
X135824952Y-29588921D01*
X135798130Y-29660837D01*
X135756259Y-29716771D01*
X135690795Y-29741188D01*
X135622522Y-29726337D01*
X135581630Y-29690389D01*
X135498859Y-29576464D01*
X135498855Y-29576459D01*
X135348536Y-29426140D01*
X135176570Y-29301201D01*
X135167045Y-29296348D01*
X135005203Y-29213885D01*
X134954409Y-29165913D01*
X134937500Y-29103402D01*
X134937500Y-28309098D01*
X134957185Y-28242059D01*
X135005203Y-28198614D01*
X135176566Y-28111301D01*
X135198539Y-28095336D01*
X135348536Y-27986359D01*
X135348538Y-27986356D01*
X135348542Y-27986354D01*
X135498854Y-27836042D01*
X135498856Y-27836038D01*
X135498859Y-27836036D01*
X135623798Y-27664070D01*
X135623797Y-27664070D01*
X135623801Y-27664066D01*
X135720307Y-27474662D01*
X135785996Y-27272493D01*
X135819250Y-27062537D01*
X135819250Y-25849963D01*
X135785996Y-25640007D01*
X135720307Y-25437838D01*
X135643473Y-25287044D01*
X135630578Y-25218376D01*
X135656854Y-25153635D01*
X135713961Y-25113378D01*
X135753959Y-25106750D01*
X140483541Y-25106750D01*
X140550580Y-25126435D01*
G37*
%TD.AperFunction*%
%TD*%
M02*
