M48
; DRILL file {KiCad 8.0.0} date 2025-01-29T17:19:58-0800
; FORMAT={-:-/ absolute / inch / decimal}
; #@! TF.CreationDate,2025-01-29T17:19:58-08:00
; #@! TF.GenerationSoftware,Kicad,Pcbnew,8.0.0
; #@! TF.FileFunction,Plated,1,2,PTH
FMAT,2
INCH
; #@! TA.AperFunction,Plated,PTH,ViaDrill
T1C0.0118
; #@! TA.AperFunction,Plated,PTH,ComponentDrill
T2C0.0276
; #@! TA.AperFunction,Plated,PTH,ComponentDrill
T3C0.0579
%
G90
G05
T1
X5.0938Y-2.1875
X5.1184Y-2.4375
X5.125Y-2.6516
X5.2188Y-2.0938
X5.2188Y-2.9688
X5.5625Y-3.5938
X5.6527Y-2.8714
X5.7812Y-2.4062
T3
X6.0375Y-1.2437
X6.0375Y-1.9937
X6.0375Y-2.7437
X6.0375Y-3.4937
X6.2875Y-1.1438
X6.2875Y-1.8938
X6.2875Y-2.6437
X6.2875Y-3.3937
X6.7875Y-1.2437
X6.7875Y-1.9937
X6.7875Y-2.7437
X6.7875Y-3.4937
X7.0375Y-1.1438
X7.0375Y-1.8938
X7.0375Y-2.6437
X7.0375Y-3.3937
X7.5375Y-1.2437
X7.5375Y-1.9937
X7.5375Y-2.7437
X7.5375Y-3.4937
X7.7875Y-1.1438
X7.7875Y-1.8938
X7.7875Y-2.6437
X7.7875Y-3.3937
X8.2875Y-1.2437
X8.2875Y-1.9937
X8.2875Y-2.7437
X8.2875Y-3.4937
X8.5375Y-1.1438
X8.5375Y-1.8938
X8.5375Y-2.6437
X8.5375Y-3.3937
T2
G00X5.294Y-1.018
M15
G01X5.294Y-1.0652
M16
G05
G00X5.294Y-1.1951
M15
G01X5.294Y-1.2424
M16
G05
G00X5.5814Y-1.018
M15
G01X5.5814Y-1.0652
M16
G05
G00X5.5814Y-1.1951
M15
G01X5.5814Y-1.2424
M16
G05
M30
