%TF.GenerationSoftware,KiCad,Pcbnew,8.0.0*%
%TF.CreationDate,2025-01-29T17:19:00-08:00*%
%TF.ProjectId,IEEE-Macropad,49454545-2d4d-4616-9372-6f7061642e6b,rev?*%
%TF.SameCoordinates,Original*%
%TF.FileFunction,Soldermask,Top*%
%TF.FilePolarity,Negative*%
%FSLAX46Y46*%
G04 Gerber Fmt 4.6, Leading zero omitted, Abs format (unit mm)*
G04 Created by KiCad (PCBNEW 8.0.0) date 2025-01-29 17:19:00*
%MOMM*%
%LPD*%
G01*
G04 APERTURE LIST*
%ADD10C,1.750000*%
%ADD11C,3.987800*%
%ADD12O,1.700000X2.700000*%
G04 APERTURE END LIST*
D10*
%TO.C,MX6*%
X171132500Y-53181250D03*
D11*
X176212500Y-53181250D03*
D10*
X181292500Y-53181250D03*
%TD*%
%TO.C,MX11*%
X190182500Y-72231250D03*
D11*
X195262500Y-72231250D03*
D10*
X200342500Y-72231250D03*
%TD*%
%TO.C,MX16*%
X209232500Y-91281250D03*
D11*
X214312500Y-91281250D03*
D10*
X219392500Y-91281250D03*
%TD*%
%TO.C,MX8*%
X209232500Y-53181250D03*
D11*
X214312500Y-53181250D03*
D10*
X219392500Y-53181250D03*
%TD*%
%TO.C,MX4*%
X209232500Y-34131250D03*
D11*
X214312500Y-34131250D03*
D10*
X219392500Y-34131250D03*
%TD*%
%TO.C,MX3*%
X190182500Y-34131250D03*
D11*
X195262500Y-34131250D03*
D10*
X200342500Y-34131250D03*
%TD*%
%TO.C,MX5*%
X152082500Y-53181250D03*
D11*
X157162500Y-53181250D03*
D10*
X162242500Y-53181250D03*
%TD*%
%TO.C,MX1*%
X152082500Y-34131250D03*
D11*
X157162500Y-34131250D03*
D10*
X162242500Y-34131250D03*
%TD*%
%TO.C,MX12*%
X209232500Y-72231250D03*
D11*
X214312500Y-72231250D03*
D10*
X219392500Y-72231250D03*
%TD*%
%TO.C,MX15*%
X190182500Y-91281250D03*
D11*
X195262500Y-91281250D03*
D10*
X200342500Y-91281250D03*
%TD*%
%TO.C,MX2*%
X171132500Y-34131250D03*
D11*
X176212500Y-34131250D03*
D10*
X181292500Y-34131250D03*
%TD*%
%TO.C,MX9*%
X152082500Y-72231250D03*
D11*
X157162500Y-72231250D03*
D10*
X162242500Y-72231250D03*
%TD*%
%TO.C,MX7*%
X190182500Y-53181250D03*
D11*
X195262500Y-53181250D03*
D10*
X200342500Y-53181250D03*
%TD*%
%TO.C,MX10*%
X171132500Y-72231250D03*
D11*
X176212500Y-72231250D03*
D10*
X181292500Y-72231250D03*
%TD*%
%TO.C,MX14*%
X171132500Y-91281250D03*
D11*
X176212500Y-91281250D03*
D10*
X181292500Y-91281250D03*
%TD*%
%TO.C,MX13*%
X152082500Y-91281250D03*
D11*
X157162500Y-91281250D03*
D10*
X162242500Y-91281250D03*
%TD*%
D12*
%TO.C,USB1*%
X141768750Y-26456250D03*
X134468750Y-26456250D03*
X141768750Y-30956250D03*
X134468750Y-30956250D03*
%TD*%
M02*
