%TF.GenerationSoftware,KiCad,Pcbnew,8.0.0*%
%TF.CreationDate,2025-01-29T17:19:00-08:00*%
%TF.ProjectId,IEEE-Macropad,49454545-2d4d-4616-9372-6f7061642e6b,rev?*%
%TF.SameCoordinates,Original*%
%TF.FileFunction,Paste,Bot*%
%TF.FilePolarity,Positive*%
%FSLAX46Y46*%
G04 Gerber Fmt 4.6, Leading zero omitted, Abs format (unit mm)*
G04 Created by KiCad (PCBNEW 8.0.0) date 2025-01-29 17:19:00*
%MOMM*%
%LPD*%
G01*
G04 APERTURE LIST*
G04 Aperture macros list*
%AMRoundRect*
0 Rectangle with rounded corners*
0 $1 Rounding radius*
0 $2 $3 $4 $5 $6 $7 $8 $9 X,Y pos of 4 corners*
0 Add a 4 corners polygon primitive as box body*
4,1,4,$2,$3,$4,$5,$6,$7,$8,$9,$2,$3,0*
0 Add four circle primitives for the rounded corners*
1,1,$1+$1,$2,$3*
1,1,$1+$1,$4,$5*
1,1,$1+$1,$6,$7*
1,1,$1+$1,$8,$9*
0 Add four rect primitives between the rounded corners*
20,1,$1+$1,$2,$3,$4,$5,0*
20,1,$1+$1,$4,$5,$6,$7,0*
20,1,$1+$1,$6,$7,$8,$9,0*
20,1,$1+$1,$8,$9,$2,$3,0*%
G04 Aperture macros list end*
%ADD10RoundRect,0.225000X0.375000X-0.225000X0.375000X0.225000X-0.375000X0.225000X-0.375000X-0.225000X0*%
%ADD11R,0.500000X2.250000*%
%ADD12R,1.800000X1.100000*%
%ADD13RoundRect,0.250000X-0.450000X0.262500X-0.450000X-0.262500X0.450000X-0.262500X0.450000X0.262500X0*%
%ADD14RoundRect,0.250000X0.250000X0.475000X-0.250000X0.475000X-0.250000X-0.475000X0.250000X-0.475000X0*%
%ADD15RoundRect,0.250000X-0.250000X-0.475000X0.250000X-0.475000X0.250000X0.475000X-0.250000X0.475000X0*%
%ADD16RoundRect,0.250000X0.475000X-0.250000X0.475000X0.250000X-0.475000X0.250000X-0.475000X-0.250000X0*%
%ADD17RoundRect,0.250000X-0.475000X0.250000X-0.475000X-0.250000X0.475000X-0.250000X0.475000X0.250000X0*%
%ADD18R,1.500000X0.550000*%
%ADD19R,0.550000X1.500000*%
%ADD20R,1.400000X1.200000*%
%ADD21RoundRect,0.250000X-0.625000X0.375000X-0.625000X-0.375000X0.625000X-0.375000X0.625000X0.375000X0*%
G04 APERTURE END LIST*
D10*
%TO.C,D9*%
X165100000Y-73818750D03*
X165100000Y-70518750D03*
%TD*%
D11*
%TO.C,USB1*%
X139718750Y-30956250D03*
X138918750Y-30956250D03*
X138118750Y-30956250D03*
X137318750Y-30956250D03*
X136518750Y-30956250D03*
%TD*%
D12*
%TO.C,SW1*%
X134937500Y-98425000D03*
X141137500Y-94725000D03*
X134937500Y-94725000D03*
X141137500Y-98425000D03*
%TD*%
D10*
%TO.C,D10*%
X184150000Y-73818750D03*
X184150000Y-70518750D03*
%TD*%
%TO.C,D2*%
X184150000Y-35718750D03*
X184150000Y-32418750D03*
%TD*%
%TO.C,D13*%
X165100000Y-92868750D03*
X165100000Y-89568750D03*
%TD*%
%TO.C,D11*%
X203200000Y-73943750D03*
X203200000Y-70643750D03*
%TD*%
D13*
%TO.C,R3*%
X136525000Y-34687500D03*
X136525000Y-36512500D03*
%TD*%
D14*
%TO.C,C6*%
X142237500Y-73025000D03*
X140337500Y-73025000D03*
%TD*%
D10*
%TO.C,D5*%
X165100000Y-54768750D03*
X165100000Y-51468750D03*
%TD*%
%TO.C,D4*%
X222250000Y-35718750D03*
X222250000Y-32418750D03*
%TD*%
D13*
%TO.C,R1*%
X130968750Y-53062500D03*
X130968750Y-54887500D03*
%TD*%
D10*
%TO.C,D1*%
X165100000Y-35718750D03*
X165100000Y-32418750D03*
%TD*%
D15*
%TO.C,C7*%
X132556250Y-73025000D03*
X134456250Y-73025000D03*
%TD*%
D10*
%TO.C,D16*%
X222250000Y-92868750D03*
X222250000Y-89568750D03*
%TD*%
D16*
%TO.C,C5*%
X134143750Y-54768750D03*
X134143750Y-52868750D03*
%TD*%
D10*
%TO.C,D15*%
X203200000Y-92868750D03*
X203200000Y-89568750D03*
%TD*%
%TO.C,D14*%
X184150000Y-92868750D03*
X184150000Y-89568750D03*
%TD*%
D13*
%TO.C,R2*%
X138906250Y-34687500D03*
X138906250Y-36512500D03*
%TD*%
D17*
%TO.C,C3*%
X129381250Y-63343750D03*
X129381250Y-65243750D03*
%TD*%
D10*
%TO.C,D12*%
X222250000Y-73943750D03*
X222250000Y-70643750D03*
%TD*%
D16*
%TO.C,C2*%
X132712500Y-46350000D03*
X132712500Y-44450000D03*
%TD*%
D18*
%TO.C,U1*%
X131637500Y-68150000D03*
X131637500Y-67350000D03*
X131637500Y-66550000D03*
X131637500Y-65750000D03*
X131637500Y-64950000D03*
X131637500Y-64150000D03*
X131637500Y-63350000D03*
X131637500Y-62550000D03*
X131637500Y-61750000D03*
X131637500Y-60950000D03*
X131637500Y-60150000D03*
D19*
X133337500Y-58450000D03*
X134137500Y-58450000D03*
X134937500Y-58450000D03*
X135737500Y-58450000D03*
X136537500Y-58450000D03*
X137337500Y-58450000D03*
X138137500Y-58450000D03*
X138937500Y-58450000D03*
X139737500Y-58450000D03*
X140537500Y-58450000D03*
X141337500Y-58450000D03*
D18*
X143037500Y-60150000D03*
X143037500Y-60950000D03*
X143037500Y-61750000D03*
X143037500Y-62550000D03*
X143037500Y-63350000D03*
X143037500Y-64150000D03*
X143037500Y-64950000D03*
X143037500Y-65750000D03*
X143037500Y-66550000D03*
X143037500Y-67350000D03*
X143037500Y-68150000D03*
D19*
X141337500Y-69850000D03*
X140537500Y-69850000D03*
X139737500Y-69850000D03*
X138937500Y-69850000D03*
X138137500Y-69850000D03*
X137337500Y-69850000D03*
X136537500Y-69850000D03*
X135737500Y-69850000D03*
X134937500Y-69850000D03*
X134137500Y-69850000D03*
X133337500Y-69850000D03*
%TD*%
D10*
%TO.C,D8*%
X222250000Y-54768750D03*
X222250000Y-51468750D03*
%TD*%
D13*
%TO.C,R4*%
X145375000Y-68937500D03*
X145375000Y-70762500D03*
%TD*%
D20*
%TO.C,Y1*%
X138112500Y-46193750D03*
X135912500Y-46193750D03*
X135912500Y-44493750D03*
X138112500Y-44493750D03*
%TD*%
D21*
%TO.C,F1*%
X132368750Y-35906250D03*
X132368750Y-38706250D03*
%TD*%
D10*
%TO.C,D3*%
X203200000Y-35718750D03*
X203200000Y-32418750D03*
%TD*%
D17*
%TO.C,C1*%
X141287500Y-44450000D03*
X141287500Y-46350000D03*
%TD*%
D10*
%TO.C,D6*%
X184150000Y-54768750D03*
X184150000Y-51468750D03*
%TD*%
D16*
%TO.C,C4*%
X145256250Y-61118750D03*
X145256250Y-59218750D03*
%TD*%
D10*
%TO.C,D7*%
X203200000Y-54768750D03*
X203200000Y-51468750D03*
%TD*%
M02*
