M48
; DRILL file {KiCad 8.0.0} date 2025-01-29T17:19:58-0800
; FORMAT={-:-/ absolute / inch / decimal}
; #@! TF.CreationDate,2025-01-29T17:19:58-08:00
; #@! TF.GenerationSoftware,Kicad,Pcbnew,8.0.0
; #@! TF.FileFunction,NonPlated,1,2,NPTH
FMAT,2
INCH
; #@! TA.AperFunction,NonPlated,NPTH,ComponentDrill
T1C0.0689
; #@! TA.AperFunction,NonPlated,NPTH,ComponentDrill
T2C0.1570
%
G90
G05
T1
X5.9875Y-1.3438
X5.9875Y-2.0938
X5.9875Y-2.8438
X5.9875Y-3.5938
X6.3875Y-1.3438
X6.3875Y-2.0938
X6.3875Y-2.8438
X6.3875Y-3.5938
X6.7375Y-1.3438
X6.7375Y-2.0938
X6.7375Y-2.8438
X6.7375Y-3.5938
X7.1375Y-1.3438
X7.1375Y-2.0938
X7.1375Y-2.8438
X7.1375Y-3.5938
X7.4875Y-1.3438
X7.4875Y-2.0938
X7.4875Y-2.8438
X7.4875Y-3.5938
X7.8875Y-1.3438
X7.8875Y-2.0938
X7.8875Y-2.8438
X7.8875Y-3.5938
X8.2375Y-1.3438
X8.2375Y-2.0938
X8.2375Y-2.8438
X8.2375Y-3.5938
X8.6375Y-1.3438
X8.6375Y-2.0938
X8.6375Y-2.8438
X8.6375Y-3.5938
T2
X6.1875Y-1.3438
X6.1875Y-2.0938
X6.1875Y-2.8438
X6.1875Y-3.5938
X6.9375Y-1.3438
X6.9375Y-2.0938
X6.9375Y-2.8438
X6.9375Y-3.5938
X7.6875Y-1.3438
X7.6875Y-2.0938
X7.6875Y-2.8438
X7.6875Y-3.5938
X8.4375Y-1.3438
X8.4375Y-2.0938
X8.4375Y-2.8438
X8.4375Y-3.5938
M30
