%TF.GenerationSoftware,KiCad,Pcbnew,8.0.0*%
%TF.CreationDate,2025-01-29T17:19:00-08:00*%
%TF.ProjectId,IEEE-Macropad,49454545-2d4d-4616-9372-6f7061642e6b,rev?*%
%TF.SameCoordinates,Original*%
%TF.FileFunction,Copper,L1,Top*%
%TF.FilePolarity,Positive*%
%FSLAX46Y46*%
G04 Gerber Fmt 4.6, Leading zero omitted, Abs format (unit mm)*
G04 Created by KiCad (PCBNEW 8.0.0) date 2025-01-29 17:19:00*
%MOMM*%
%LPD*%
G01*
G04 APERTURE LIST*
%TA.AperFunction,ComponentPad*%
%ADD10C,2.250000*%
%TD*%
%TA.AperFunction,ComponentPad*%
%ADD11O,1.700000X2.700000*%
%TD*%
%TA.AperFunction,ViaPad*%
%ADD12C,0.600000*%
%TD*%
%TA.AperFunction,Conductor*%
%ADD13C,0.381000*%
%TD*%
%TA.AperFunction,Conductor*%
%ADD14C,0.254000*%
%TD*%
G04 APERTURE END LIST*
D10*
%TO.P,MX6,1,COL*%
%TO.N,COL1*%
X172402500Y-50641250D03*
%TO.P,MX6,2,ROW*%
%TO.N,Net-(D6-A)*%
X178752500Y-48101250D03*
%TD*%
%TO.P,MX11,1,COL*%
%TO.N,COL2*%
X191452500Y-69691250D03*
%TO.P,MX11,2,ROW*%
%TO.N,Net-(D11-A)*%
X197802500Y-67151250D03*
%TD*%
%TO.P,MX16,1,COL*%
%TO.N,COL3*%
X210502500Y-88741250D03*
%TO.P,MX16,2,ROW*%
%TO.N,Net-(D16-A)*%
X216852500Y-86201250D03*
%TD*%
%TO.P,MX8,1,COL*%
%TO.N,COL3*%
X210502500Y-50641250D03*
%TO.P,MX8,2,ROW*%
%TO.N,Net-(D8-A)*%
X216852500Y-48101250D03*
%TD*%
%TO.P,MX4,1,COL*%
%TO.N,COL3*%
X210502500Y-31591250D03*
%TO.P,MX4,2,ROW*%
%TO.N,Net-(D4-A)*%
X216852500Y-29051250D03*
%TD*%
%TO.P,MX3,1,COL*%
%TO.N,COL2*%
X191452500Y-31591250D03*
%TO.P,MX3,2,ROW*%
%TO.N,Net-(D3-A)*%
X197802500Y-29051250D03*
%TD*%
%TO.P,MX5,1,COL*%
%TO.N,COL0*%
X153352500Y-50641250D03*
%TO.P,MX5,2,ROW*%
%TO.N,Net-(D5-A)*%
X159702500Y-48101250D03*
%TD*%
%TO.P,MX1,1,COL*%
%TO.N,COL0*%
X153352500Y-31591250D03*
%TO.P,MX1,2,ROW*%
%TO.N,Net-(D1-A)*%
X159702500Y-29051250D03*
%TD*%
%TO.P,MX12,1,COL*%
%TO.N,COL3*%
X210502500Y-69691250D03*
%TO.P,MX12,2,ROW*%
%TO.N,Net-(D12-A)*%
X216852500Y-67151250D03*
%TD*%
%TO.P,MX15,1,COL*%
%TO.N,COL2*%
X191452500Y-88741250D03*
%TO.P,MX15,2,ROW*%
%TO.N,Net-(D15-A)*%
X197802500Y-86201250D03*
%TD*%
%TO.P,MX2,1,COL*%
%TO.N,COL1*%
X172402500Y-31591250D03*
%TO.P,MX2,2,ROW*%
%TO.N,Net-(D2-A)*%
X178752500Y-29051250D03*
%TD*%
%TO.P,MX9,1,COL*%
%TO.N,COL0*%
X153352500Y-69691250D03*
%TO.P,MX9,2,ROW*%
%TO.N,Net-(D9-A)*%
X159702500Y-67151250D03*
%TD*%
%TO.P,MX7,1,COL*%
%TO.N,COL2*%
X191452500Y-50641250D03*
%TO.P,MX7,2,ROW*%
%TO.N,Net-(D7-A)*%
X197802500Y-48101250D03*
%TD*%
%TO.P,MX10,1,COL*%
%TO.N,COL1*%
X172402500Y-69691250D03*
%TO.P,MX10,2,ROW*%
%TO.N,Net-(D10-A)*%
X178752500Y-67151250D03*
%TD*%
%TO.P,MX14,1,COL*%
%TO.N,COL1*%
X172402500Y-88741250D03*
%TO.P,MX14,2,ROW*%
%TO.N,Net-(D14-A)*%
X178752500Y-86201250D03*
%TD*%
%TO.P,MX13,1,COL*%
%TO.N,COL0*%
X153352500Y-88741250D03*
%TO.P,MX13,2,ROW*%
%TO.N,Net-(D13-A)*%
X159702500Y-86201250D03*
%TD*%
D11*
%TO.P,USB1,6,SHIELD*%
%TO.N,unconnected-(USB1-SHIELD-Pad6)*%
X141768750Y-26456250D03*
X134468750Y-26456250D03*
X141768750Y-30956250D03*
X134468750Y-30956250D03*
%TD*%
D12*
%TO.N,+5V*%
X132556250Y-53181250D03*
X130008250Y-61912500D03*
X130175000Y-67350000D03*
X132556250Y-75406250D03*
X143577367Y-72933617D03*
X146843750Y-61118750D03*
%TO.N,Net-(U1-~{RESET})*%
X141287500Y-91281250D03*
X129381250Y-55562500D03*
%TD*%
D13*
%TO.N,+5V*%
X130056250Y-67468750D02*
X130175000Y-67350000D01*
X143577367Y-72933617D02*
X138997633Y-72933617D01*
X129898750Y-56632500D02*
X129898750Y-67468750D01*
X129898750Y-67468750D02*
X130056250Y-67468750D01*
X136525000Y-75406250D02*
X132556250Y-75406250D01*
X146843750Y-61118750D02*
X146843750Y-69667234D01*
X146843750Y-69667234D02*
X143577367Y-72933617D01*
X129898750Y-67468750D02*
X129898750Y-72748750D01*
X132556250Y-53975000D02*
X129898750Y-56632500D01*
X132556250Y-53181250D02*
X132556250Y-53975000D01*
X129898750Y-72748750D02*
X132556250Y-75406250D01*
X138997633Y-72933617D02*
X136525000Y-75406250D01*
D14*
%TO.N,COL0*%
X153352500Y-31591250D02*
X153352500Y-50641250D01*
X153352500Y-88741250D02*
X153352500Y-69691250D01*
X153352500Y-50641250D02*
X153352500Y-69691250D01*
%TO.N,COL1*%
X172402500Y-50641250D02*
X172402500Y-31591250D01*
X172402500Y-88741250D02*
X172402500Y-69691250D01*
X172402500Y-69691250D02*
X172402500Y-50641250D01*
%TO.N,COL2*%
X191452500Y-50641250D02*
X191452500Y-69691250D01*
X191452500Y-69691250D02*
X191452500Y-88741250D01*
X191452500Y-31591250D02*
X191452500Y-50641250D01*
%TO.N,COL3*%
X210502500Y-69691250D02*
X210502500Y-50641250D01*
X210502500Y-88741250D02*
X210502500Y-69691250D01*
X210502500Y-50641250D02*
X210502500Y-31591250D01*
%TO.N,Net-(U1-~{RESET})*%
X141287500Y-85725000D02*
X129381250Y-73818750D01*
X129381250Y-73025000D02*
X129381250Y-55562500D01*
X129381250Y-73818750D02*
X129381250Y-73025000D01*
X141287500Y-91281250D02*
X141287500Y-85725000D01*
%TD*%
M02*
